<svg width="515" height="515" viewBox="0 0 515 515" fill="none" xmlns="http://www.w3.org/2000/svg">
<path d="M170.5 309.9C100.4 194 82.8 76.4 131.1 47.1C179.4 17.8 275.4 88.2 345.5 204.1C415.6 320 433.2 437.7 384.9 466.9C336.6 496.1 240.6 425.8 170.5 309.9Z" fill="url(#paint0_linear)" stroke="#BEF7FF" stroke-width="20" stroke-miterlimit="10"/>
<path opacity="0.75" d="M257.3 360.5C392.775 360.5 502.6 314.743 502.6 258.3C502.6 201.856 392.775 156.1 257.3 156.1C121.825 156.1 12 201.856 12 258.3C12 314.743 121.825 360.5 257.3 360.5Z" fill="url(#paint1_linear)" stroke="#BEF7FF" stroke-width="20" stroke-miterlimit="10"/>
<path opacity="0.8" d="M347.3 306.8C281.4 425.1 188 498.8 138.7 471.4C89.4 443.9 102.8 325.7 168.7 207.4C234.6 89.1 328 15.3 377.3 42.7C426.6 70.1 413.2 188.4 347.3 306.8Z" fill="url(#paint2_linear)" stroke="#BEF7FF" stroke-width="20" stroke-miterlimit="10"/>
<mask id="mask0" mask-type="alpha" maskUnits="userSpaceOnUse" x="2" y="26" width="511" height="462">
<g opacity="0.8">
<path fill-rule="evenodd" clip-rule="evenodd" d="M399.543 175.027C461.923 193.557 502.6 223.949 502.6 258.3C502.6 291.817 463.873 321.566 404.046 340.203C419.023 401.032 413.576 449.564 384.9 466.9C355.641 484.589 308.879 465.765 260.973 422.41C214.643 467.483 168.575 488.004 138.7 471.4C108.85 454.749 101.986 404.848 115.844 341.806C53.0191 323.299 12 292.795 12 258.3C12 224.43 51.5458 194.408 112.45 175.812C96.8613 114.074 102.112 64.6845 131.1 47.1C160.38 29.3381 207.189 48.2146 255.13 91.6552C301.426 46.6232 347.448 26.1086 377.3 42.7C407.581 59.5295 414.207 110.652 399.543 175.027Z" fill="url(#paint3_linear)"/>
<path d="M399.543 175.027L389.793 172.806L387.711 181.944L396.696 184.613L399.543 175.027ZM404.046 340.203L401.071 330.656L392.085 333.455L394.336 342.594L404.046 340.203ZM384.9 466.9L379.726 458.342L379.726 458.342L384.9 466.9ZM260.973 422.41L267.683 414.995L260.725 408.699L254 415.242L260.973 422.41ZM138.7 471.4L133.829 480.133L133.835 480.137L133.842 480.141L138.7 471.4ZM115.844 341.806L125.611 343.953L127.612 334.847L118.67 332.213L115.844 341.806ZM112.45 175.812L115.37 185.376L124.476 182.596L122.146 173.364L112.45 175.812ZM131.1 47.1L136.287 55.6498L136.287 55.6498L131.1 47.1ZM255.13 91.6552L248.416 99.0656L255.373 105.37L262.103 98.8234L255.13 91.6552ZM377.3 42.7L372.442 51.4407L372.442 51.4407L377.3 42.7ZM396.696 184.613C427.157 193.662 451.627 205.42 468.261 218.574C484.974 231.79 492.6 245.392 492.6 258.3H512.6C512.6 236.857 499.888 218.087 480.667 202.887C461.368 187.625 434.309 174.922 402.391 165.441L396.696 184.613ZM492.6 258.3C492.6 270.897 485.346 284.144 469.448 297.074C453.608 309.957 430.259 321.563 401.071 330.656L407.02 349.751C437.66 340.206 463.588 327.62 482.068 312.59C500.491 297.606 512.6 279.221 512.6 258.3H492.6ZM394.336 342.594C401.642 372.269 403.778 398.252 400.94 418.472C398.092 438.764 390.504 451.827 379.726 458.342L390.074 475.458C407.972 464.637 417.446 444.766 420.746 421.251C424.056 397.663 421.426 368.966 413.756 337.812L394.336 342.594ZM379.726 458.342C368.731 464.989 353.239 465.527 333.407 458.17C313.664 450.847 291.072 436.163 267.683 414.995L254.263 429.824C278.779 452.012 303.522 468.417 326.451 476.922C349.291 485.394 371.81 486.499 390.074 475.458L379.726 458.342ZM254 415.242C231.379 437.249 209.322 452.75 189.849 460.791C170.286 468.869 154.782 468.897 143.558 462.659L133.842 480.141C152.493 490.506 174.96 488.577 197.482 479.277C220.094 469.94 244.237 452.644 267.946 429.578L254 415.242ZM143.571 462.667C132.349 456.407 124.2 443.22 120.747 422.366C117.31 401.605 118.845 374.73 125.611 343.953L106.077 339.659C98.9847 371.923 97.0232 401.52 101.016 425.633C104.993 449.653 115.201 469.742 133.829 480.133L143.571 462.667ZM118.67 332.213C87.9861 323.174 63.3201 311.391 46.5472 298.19C29.6919 284.925 22 271.262 22 258.3H2C2 279.833 14.8176 298.67 34.1781 313.907C53.621 329.208 80.8769 341.93 113.018 351.398L118.67 332.213ZM22 258.3C22 245.572 29.4106 232.174 45.6503 219.123C61.8243 206.125 85.6452 194.452 115.37 185.376L109.53 166.248C78.3505 175.768 51.9465 188.405 33.1216 203.534C14.3623 218.61 2 237.158 2 258.3H22ZM122.146 173.364C114.538 143.233 112.208 116.806 114.97 96.2285C117.743 75.5682 125.38 62.266 136.287 55.6498L125.913 38.5501C107.833 49.5185 98.3504 69.7032 95.1477 93.5683C91.9339 117.516 94.7733 146.653 102.754 178.26L122.146 173.364ZM136.287 55.6498C147.287 48.9764 162.788 48.4318 182.636 55.8013C202.396 63.1381 225.008 77.8551 248.416 99.0656L261.845 84.2449C237.312 62.0148 212.548 45.5732 189.598 37.052C166.736 28.5636 144.192 27.4617 125.913 38.5501L136.287 55.6498ZM262.103 98.8234C284.707 76.8362 306.744 61.3472 326.199 53.3115C345.743 45.2388 361.23 45.2093 372.442 51.4407L382.158 33.9592C363.518 23.5992 341.067 25.5314 318.564 34.8262C295.971 44.1579 271.849 61.4423 248.158 84.4871L262.103 98.8234ZM372.442 51.4407C383.813 57.7602 392.035 71.2227 395.398 92.5885C398.742 113.843 396.956 141.359 389.793 172.806L409.294 177.248C416.794 144.32 419.027 114.087 415.154 89.4793C411.299 64.9827 401.068 44.4692 382.158 33.9592L372.442 51.4407Z" fill="#BEF7FF"/>
</g>
</mask>
<g mask="url(#mask0)">
<g style="mix-blend-mode:color-dodge">
<path d="M76 320L268 319" stroke="#0085FF" stroke-width="5"/>
<rect x="249.5" y="106.5" width="293" height="47" stroke="#0085FF" stroke-width="7"/>
<rect x="77.5" y="366.5" width="293" height="47" stroke="#0085FF" stroke-width="7"/>
<path d="M328 384L341 397L354 384" stroke="#0085FF" stroke-width="5"/>
<path d="M-72.5 169.5H220.5V267.5H-72.5V169.5Z" stroke="#0085FF" stroke-width="7"/>
<rect x="137.5" y="98.5" width="37" height="38" stroke="#0085FF" stroke-width="7"/>
<path d="M146 109L159 124.5L195.5 88" stroke="#0085FF" stroke-width="6"/>
<path d="M263 184H276M289 184H276M276 184V223.5H263H289" stroke="#0085FF" stroke-width="6"/>
<circle cx="329.5" cy="255.5" r="14.5" fill="#0085FF"/>
<circle cx="329.5" cy="255.5" r="21.5" stroke="#0085FF" stroke-width="4"/>
<circle cx="329.5" cy="314.5" r="21.5" stroke="#0085FF" stroke-width="4"/>
<circle cx="204.5" cy="318.5" r="10.5" fill="#0085FF"/>
</g>
</g>
<defs>
<linearGradient id="paint0_linear" x1="176.439" y1="338.578" x2="339.525" y2="175.492" gradientUnits="userSpaceOnUse">
<stop stop-color="#1C75BC"/>
<stop offset="0.5873" stop-color="#089EE1"/>
<stop offset="1" stop-color="#00AEEF"/>
</linearGradient>
<linearGradient id="paint1_linear" x1="124.377" y1="391.205" x2="390.168" y2="125.414" gradientUnits="userSpaceOnUse">
<stop stop-color="#1C75BC"/>
<stop offset="0.5873" stop-color="#089EE1"/>
<stop offset="1" stop-color="#00AEEF"/>
</linearGradient>
<linearGradient id="paint2_linear" x1="89.9892" y1="425.028" x2="425.975" y2="89.0424" gradientUnits="userSpaceOnUse">
<stop stop-color="#1C75BC"/>
<stop offset="0.5873" stop-color="#089EE1"/>
<stop offset="1" stop-color="#00AEEF"/>
</linearGradient>
<linearGradient id="paint3_linear" x1="89.9892" y1="425.028" x2="425.975" y2="89.0424" gradientUnits="userSpaceOnUse">
<stop stop-color="#1C75BC"/>
<stop offset="0.5873" stop-color="#089EE1"/>
<stop offset="1" stop-color="#00AEEF"/>
</linearGradient>
</defs>
</svg>
