<svg width="3226" height="712" viewBox="0 0 3226 712" fill="none" xmlns="http://www.w3.org/2000/svg">
<rect width="3226" height="712" rx="124" fill="white"/>
<path d="M508.5 407.9C438.4 292 420.8 174.4 469.1 145.1C517.4 115.8 613.4 186.2 683.5 302.1C753.6 418 771.2 535.7 722.9 564.9C674.6 594.1 578.6 523.8 508.5 407.9Z" fill="url(#paint0_linear)" stroke="#BEF7FF" stroke-width="20" stroke-miterlimit="10"/>
<path opacity="0.75" d="M595.3 458.5C730.775 458.5 840.6 412.743 840.6 356.3C840.6 299.857 730.775 254.1 595.3 254.1C459.825 254.1 350 299.857 350 356.3C350 412.743 459.825 458.5 595.3 458.5Z" fill="url(#paint1_linear)" stroke="#BEF7FF" stroke-width="20" stroke-miterlimit="10"/>
<path opacity="0.8" d="M685.3 404.8C619.4 523.1 526 596.8 476.7 569.4C427.4 541.9 440.8 423.7 506.7 305.4C572.6 187.1 666 113.3 715.3 140.7C764.6 168.1 751.2 286.4 685.3 404.8Z" fill="url(#paint2_linear)" stroke="#BEF7FF" stroke-width="20" stroke-miterlimit="10"/>
<path d="M1012.85 450C1010.93 450 1009.2 449.328 1007.66 447.984C1006.32 446.64 1005.65 445.2 1005.65 443.664V253.296C1005.65 251.568 1006.32 250.128 1007.66 248.976C1009.2 247.632 1010.93 246.96 1012.85 246.96H1123.73C1125.26 246.96 1126.51 247.536 1127.47 248.688C1128.43 249.648 1128.91 250.992 1128.91 252.72C1128.91 254.256 1128.43 255.6 1127.47 256.752C1126.51 257.712 1125.26 258.192 1123.73 258.192H1017.74V341.424H1117.97C1119.5 341.424 1120.75 341.904 1121.71 342.864C1122.67 343.824 1123.15 345.168 1123.15 346.896C1123.15 348.624 1122.67 350.064 1121.71 351.216C1120.75 352.176 1119.5 352.656 1117.97 352.656H1017.74V438.768H1123.73C1125.26 438.768 1126.51 439.248 1127.47 440.208C1128.43 441.168 1128.91 442.512 1128.91 444.24C1128.91 445.968 1128.43 447.408 1127.47 448.56C1126.51 449.52 1125.26 450 1123.73 450H1012.85ZM1277.28 439.92C1278.63 441.456 1279.3 443.088 1279.3 444.816C1279.3 446.544 1278.72 447.984 1277.57 449.136C1276.42 450.288 1275.07 450.864 1273.54 450.864C1271.81 450.864 1270.18 450 1268.64 448.272L1216.8 387.504L1165.25 448.272C1163.52 450 1161.79 450.864 1160.07 450.864C1158.53 450.864 1157.19 450.288 1156.03 449.136C1154.88 447.984 1154.31 446.544 1154.31 444.816C1154.31 443.088 1154.98 441.456 1156.32 439.92L1209.03 378.576L1158.05 318.672C1156.71 317.136 1156.03 315.504 1156.03 313.776C1156.03 312.048 1156.61 310.608 1157.76 309.456C1158.91 308.304 1160.26 307.728 1161.79 307.728C1163.52 307.728 1165.15 308.592 1166.69 310.32L1216.8 369.648L1266.91 310.32C1268.45 308.592 1270.08 307.728 1271.81 307.728C1273.35 307.728 1274.69 308.304 1275.84 309.456C1277.19 310.608 1277.86 312.048 1277.86 313.776C1277.86 315.504 1277.19 317.136 1275.84 318.672L1224.58 378.576L1277.28 439.92ZM1364.86 452.016C1352.57 452.016 1341.63 449.04 1332.03 443.088C1322.43 437.136 1314.94 428.688 1309.56 417.744C1304.38 406.8 1301.79 394.224 1301.79 380.016C1301.79 365.616 1304.38 352.944 1309.56 342C1314.94 330.864 1322.43 322.32 1332.03 316.368C1341.82 310.224 1352.96 307.152 1365.44 307.152C1372.54 307.152 1379.45 308.112 1386.17 310.032C1392.89 311.76 1398.84 314.544 1404.03 318.384C1407.68 321.264 1410.17 323.664 1411.52 325.584C1413.05 327.312 1413.82 329.232 1413.82 331.344C1413.82 332.688 1413.34 333.936 1412.38 335.088C1411.42 336.048 1410.27 336.528 1408.92 336.528C1407.96 336.528 1406.81 336.144 1405.47 335.376C1404.12 334.416 1402.68 333.36 1401.15 332.208C1395.96 328.176 1390.68 324.912 1385.31 322.416C1380.12 319.92 1373.6 318.672 1365.72 318.672C1349.79 318.672 1337.31 324.144 1328.28 335.088C1319.26 346.032 1314.75 361.104 1314.75 380.304C1314.75 399.12 1319.16 413.808 1328 424.368C1337.02 434.928 1349.5 440.208 1365.44 440.208C1373.5 440.208 1380.32 438.96 1385.88 436.464C1391.64 433.968 1397.12 430.704 1402.3 426.672C1405.95 423.984 1408.44 422.64 1409.79 422.64C1411.13 422.64 1412.28 423.12 1413.24 424.08C1414.2 425.04 1414.68 426.192 1414.68 427.536C1414.68 429.456 1414.01 431.184 1412.67 432.72C1411.32 434.256 1408.73 436.56 1404.89 439.632C1399.9 443.28 1393.76 446.256 1386.46 448.56C1379.16 450.864 1371.96 452.016 1364.86 452.016ZM1552.27 422.64C1553.61 422.64 1554.77 423.216 1555.73 424.368C1556.69 425.328 1557.17 426.48 1557.17 427.824C1557.17 429.744 1556.4 431.664 1554.86 433.584C1553.52 435.312 1551.02 437.328 1547.37 439.632C1533.55 447.888 1519.25 452.016 1504.46 452.016C1483.53 452.016 1467.02 445.584 1454.93 432.72C1443.02 419.856 1437.07 402.192 1437.07 379.728C1437.07 365.328 1439.76 352.656 1445.13 341.712C1450.51 330.768 1458.09 322.32 1467.89 316.368C1477.68 310.224 1488.91 307.152 1501.58 307.152C1519.25 307.152 1533.17 312.912 1543.34 324.432C1553.52 335.952 1558.61 351.696 1558.61 371.664C1558.61 375.12 1557.93 377.616 1556.59 379.152C1555.25 380.688 1552.85 381.456 1549.39 381.456H1450.32C1450.51 400.272 1455.21 414.768 1464.43 424.944C1473.84 435.12 1486.99 440.208 1503.89 440.208C1513.1 440.208 1520.69 438.96 1526.64 436.464C1532.78 433.968 1538.73 430.704 1544.49 426.672C1548.53 423.984 1551.12 422.64 1552.27 422.64ZM1501.58 318.384C1486.99 318.384 1475.18 322.992 1466.16 332.208C1457.33 341.232 1452.14 353.904 1450.61 370.224H1547.09C1546.7 353.52 1542.57 340.752 1534.7 331.92C1526.83 322.896 1515.79 318.384 1501.58 318.384ZM1603.65 451.44C1601.73 451.44 1600.2 450.864 1599.05 449.712C1598.09 448.56 1597.61 446.928 1597.61 444.816V252.144C1597.61 250.032 1598.09 248.4 1599.05 247.248C1600.2 246.096 1601.73 245.52 1603.65 245.52C1605.38 245.52 1606.82 246.192 1607.97 247.536C1609.13 248.688 1609.7 250.224 1609.7 252.144V444.816C1609.7 446.736 1609.13 448.368 1607.97 449.712C1606.82 450.864 1605.38 451.44 1603.65 451.44ZM1664.68 451.44C1662.76 451.44 1661.23 450.864 1660.08 449.712C1659.12 448.56 1658.64 446.928 1658.64 444.816V252.144C1658.64 250.032 1659.12 248.4 1660.08 247.248C1661.23 246.096 1662.76 245.52 1664.68 245.52C1666.41 245.52 1667.85 246.192 1669 247.536C1670.16 248.688 1670.73 250.224 1670.73 252.144V444.816C1670.73 446.736 1670.16 448.368 1669 449.712C1667.85 450.864 1666.41 451.44 1664.68 451.44ZM1825.36 422.64C1826.71 422.64 1827.86 423.216 1828.82 424.368C1829.78 425.328 1830.26 426.48 1830.26 427.824C1830.26 429.744 1829.49 431.664 1827.96 433.584C1826.61 435.312 1824.12 437.328 1820.47 439.632C1806.64 447.888 1792.34 452.016 1777.56 452.016C1756.63 452.016 1740.12 445.584 1728.02 432.72C1716.12 419.856 1710.16 402.192 1710.16 379.728C1710.16 365.328 1712.85 352.656 1718.23 341.712C1723.6 330.768 1731.19 322.32 1740.98 316.368C1750.77 310.224 1762 307.152 1774.68 307.152C1792.34 307.152 1806.26 312.912 1816.44 324.432C1826.61 335.952 1831.7 351.696 1831.7 371.664C1831.7 375.12 1831.03 377.616 1829.68 379.152C1828.34 380.688 1825.94 381.456 1822.48 381.456H1723.41C1723.6 400.272 1728.31 414.768 1737.52 424.944C1746.93 435.12 1760.08 440.208 1776.98 440.208C1786.2 440.208 1793.78 438.96 1799.73 436.464C1805.88 433.968 1811.83 430.704 1817.59 426.672C1821.62 423.984 1824.21 422.64 1825.36 422.64ZM1774.68 318.384C1760.08 318.384 1748.28 322.992 1739.25 332.208C1730.42 341.232 1725.24 353.904 1723.7 370.224H1820.18C1819.8 353.52 1815.67 340.752 1807.8 331.92C1799.92 322.896 1788.88 318.384 1774.68 318.384ZM1930.89 307.152C1964.68 307.152 1981.58 324.816 1981.58 360.144V444.816C1981.58 449.232 1979.56 451.44 1975.53 451.44C1973.61 451.44 1972.07 450.864 1970.92 449.712C1969.96 448.56 1969.48 446.928 1969.48 444.816V361.296C1969.48 346.512 1966.51 335.76 1960.55 329.04C1954.6 322.128 1945 318.672 1931.75 318.672C1916.97 318.672 1905.07 323.28 1896.04 332.496C1887.21 341.52 1882.79 353.616 1882.79 368.784V444.816C1882.79 446.928 1882.22 448.56 1881.07 449.712C1880.11 450.864 1878.67 451.44 1876.75 451.44C1874.83 451.44 1873.29 450.864 1872.14 449.712C1871.18 448.56 1870.7 446.928 1870.7 444.816V314.352C1870.7 309.936 1872.71 307.728 1876.75 307.728C1878.67 307.728 1880.11 308.304 1881.07 309.456C1882.03 310.608 1882.51 312.24 1882.51 314.352V335.664C1886.73 326.448 1893.07 319.44 1901.51 314.64C1910.15 309.648 1919.95 307.152 1930.89 307.152ZM2086.91 440.208C2091.13 440.592 2093.25 442.512 2093.25 445.968C2093.25 450.192 2090.46 452.016 2084.89 451.44L2077.41 450.864C2063.01 449.904 2052.45 445.584 2045.73 437.904C2039.01 430.032 2035.65 417.936 2035.65 401.616V320.976H2011.74C2010.4 320.976 2009.25 320.496 2008.29 319.536C2007.33 318.576 2006.85 317.424 2006.85 316.08C2006.85 314.544 2007.33 313.296 2008.29 312.336C2009.25 311.184 2010.4 310.608 2011.74 310.608H2035.65V272.304C2035.65 270.192 2036.22 268.56 2037.37 267.408C2038.53 266.256 2039.97 265.68 2041.69 265.68C2043.42 265.68 2044.86 266.256 2046.01 267.408C2047.17 268.56 2047.74 270.192 2047.74 272.304V310.608H2086.05C2087.39 310.608 2088.54 311.184 2089.5 312.336C2090.46 313.296 2090.94 314.544 2090.94 316.08C2090.94 317.424 2090.46 318.576 2089.5 319.536C2088.73 320.496 2087.58 320.976 2086.05 320.976H2047.74V401.904C2047.74 414.96 2050.24 424.272 2055.23 429.84C2060.41 435.408 2068.38 438.672 2079.13 439.632L2086.91 440.208ZM2343.1 443.088C2343.68 444.24 2343.96 445.296 2343.96 446.256C2343.96 447.6 2343.39 448.848 2342.24 450C2341.28 450.96 2340.03 451.44 2338.49 451.44C2336.57 451.44 2334.94 450.48 2333.6 448.56L2294.43 384.912C2288.67 375.312 2282.52 368.784 2276 365.328C2269.66 361.872 2260.83 360.144 2249.5 360.144H2206.3V444.816C2206.3 446.736 2205.72 448.368 2204.57 449.712C2203.61 450.864 2202.27 451.44 2200.54 451.44C2198.62 451.44 2197.08 450.864 2195.93 449.712C2194.97 448.56 2194.49 446.928 2194.49 444.816V253.296C2194.49 251.568 2195.16 250.128 2196.51 248.976C2198.04 247.632 2199.77 246.96 2201.69 246.96H2272.83C2293.76 246.96 2309.88 251.76 2321.21 261.36C2332.73 270.768 2338.49 284.688 2338.49 303.12C2338.49 319.632 2333.4 332.592 2323.23 342C2313.24 351.408 2299.13 356.784 2280.89 358.128C2285.31 359.664 2289.34 362.256 2292.99 365.904C2296.83 369.552 2300.67 374.448 2304.51 380.592L2343.1 443.088ZM2273.12 348.624C2308.25 348.624 2325.82 333.36 2325.82 302.832C2325.82 287.856 2321.5 276.72 2312.86 269.424C2304.22 261.936 2290.97 258.192 2273.12 258.192H2206.59V348.624H2273.12ZM2491.93 422.64C2493.27 422.64 2494.42 423.216 2495.38 424.368C2496.34 425.328 2496.82 426.48 2496.82 427.824C2496.82 429.744 2496.05 431.664 2494.52 433.584C2493.17 435.312 2490.68 437.328 2487.03 439.632C2473.21 447.888 2458.9 452.016 2444.12 452.016C2423.19 452.016 2406.68 445.584 2394.58 432.72C2382.68 419.856 2376.73 402.192 2376.73 379.728C2376.73 365.328 2379.41 352.656 2384.79 341.712C2390.17 330.768 2397.75 322.32 2407.54 316.368C2417.33 310.224 2428.57 307.152 2441.24 307.152C2458.9 307.152 2472.82 312.912 2483 324.432C2493.17 335.952 2498.26 351.696 2498.26 371.664C2498.26 375.12 2497.59 377.616 2496.25 379.152C2494.9 380.688 2492.5 381.456 2489.05 381.456H2389.97C2390.17 400.272 2394.87 414.768 2404.09 424.944C2413.49 435.12 2426.65 440.208 2443.54 440.208C2452.76 440.208 2460.34 438.96 2466.29 436.464C2472.44 433.968 2478.39 430.704 2484.15 426.672C2488.18 423.984 2490.77 422.64 2491.93 422.64ZM2441.24 318.384C2426.65 318.384 2414.84 322.992 2405.81 332.208C2396.98 341.232 2391.8 353.904 2390.26 370.224H2486.74C2486.36 353.52 2482.23 340.752 2474.36 331.92C2466.49 322.896 2455.45 318.384 2441.24 318.384ZM2590.83 307.152C2622.89 307.152 2638.93 324.336 2638.93 358.704V444.528C2638.93 446.64 2638.35 448.272 2637.2 449.424C2636.24 450.576 2634.8 451.152 2632.88 451.152C2630.96 451.152 2629.42 450.576 2628.27 449.424C2627.12 448.08 2626.54 446.448 2626.54 444.528V424.368C2622.32 433.2 2616.17 440.016 2608.11 444.816C2600.24 449.616 2591.21 452.016 2581.04 452.016C2572.21 452.016 2564.05 450.192 2556.56 446.544C2549.26 442.896 2543.41 437.904 2538.99 431.568C2534.77 425.04 2532.65 417.936 2532.65 410.256C2532.65 399.888 2535.34 391.92 2540.72 386.352C2546.29 380.592 2555.31 376.464 2567.79 373.968C2580.46 371.472 2598.13 370.224 2620.78 370.224H2626.54V358.128C2626.54 344.496 2623.76 334.608 2618.19 328.464C2612.81 322.128 2604.27 318.96 2592.56 318.96C2583.34 318.96 2575.09 320.208 2567.79 322.704C2560.69 325.008 2555.02 327.696 2550.8 330.768C2550.03 331.344 2548.4 332.496 2545.9 334.224C2543.6 335.76 2541.68 336.528 2540.14 336.528C2538.8 336.528 2537.55 336.048 2536.4 335.088C2535.44 333.936 2534.96 332.592 2534.96 331.056C2534.96 327.408 2538.32 323.568 2545.04 319.536C2551.76 315.504 2559.05 312.432 2566.93 310.32C2574.99 308.208 2582.96 307.152 2590.83 307.152ZM2581.04 439.92C2589.68 439.92 2597.45 437.904 2604.37 433.872C2611.28 429.648 2616.65 423.888 2620.49 416.592C2624.53 409.296 2626.54 401.04 2626.54 391.824V381.456H2621.07C2600.91 381.456 2585.55 382.32 2574.99 384.048C2564.43 385.584 2557.04 388.368 2552.81 392.4C2548.59 396.24 2546.48 402 2546.48 409.68C2546.48 418.512 2549.74 425.808 2556.27 431.568C2562.8 437.136 2571.05 439.92 2581.04 439.92ZM2741.02 452.016C2728.73 452.016 2717.78 449.04 2708.18 443.088C2698.58 437.136 2691.1 428.688 2685.72 417.744C2680.54 406.8 2677.94 394.224 2677.94 380.016C2677.94 365.616 2680.54 352.944 2685.72 342C2691.1 330.864 2698.58 322.32 2708.18 316.368C2717.98 310.224 2729.11 307.152 2741.59 307.152C2748.7 307.152 2755.61 308.112 2762.33 310.032C2769.05 311.76 2775 314.544 2780.18 318.384C2783.83 321.264 2786.33 323.664 2787.67 325.584C2789.21 327.312 2789.98 329.232 2789.98 331.344C2789.98 332.688 2789.5 333.936 2788.54 335.088C2787.58 336.048 2786.42 336.528 2785.08 336.528C2784.12 336.528 2782.97 336.144 2781.62 335.376C2780.28 334.416 2778.84 333.36 2777.3 332.208C2772.12 328.176 2766.84 324.912 2761.46 322.416C2756.28 319.92 2749.75 318.672 2741.88 318.672C2725.94 318.672 2713.46 324.144 2704.44 335.088C2695.42 346.032 2690.9 361.104 2690.9 380.304C2690.9 399.12 2695.32 413.808 2704.15 424.368C2713.18 434.928 2725.66 440.208 2741.59 440.208C2749.66 440.208 2756.47 438.96 2762.04 436.464C2767.8 433.968 2773.27 430.704 2778.46 426.672C2782.1 423.984 2784.6 422.64 2785.94 422.64C2787.29 422.64 2788.44 423.12 2789.4 424.08C2790.36 425.04 2790.84 426.192 2790.84 427.536C2790.84 429.456 2790.17 431.184 2788.82 432.72C2787.48 434.256 2784.89 436.56 2781.05 439.632C2776.06 443.28 2769.91 446.256 2762.62 448.56C2755.32 450.864 2748.12 452.016 2741.02 452.016ZM2879.47 440.208C2883.7 440.592 2885.81 442.512 2885.81 445.968C2885.81 450.192 2883.02 452.016 2877.46 451.44L2869.97 450.864C2855.57 449.904 2845.01 445.584 2838.29 437.904C2831.57 430.032 2828.21 417.936 2828.21 401.616V320.976H2804.3C2802.96 320.976 2801.81 320.496 2800.85 319.536C2799.89 318.576 2799.41 317.424 2799.41 316.08C2799.41 314.544 2799.89 313.296 2800.85 312.336C2801.81 311.184 2802.96 310.608 2804.3 310.608H2828.21V272.304C2828.21 270.192 2828.78 268.56 2829.94 267.408C2831.09 266.256 2832.53 265.68 2834.26 265.68C2835.98 265.68 2837.42 266.256 2838.58 267.408C2839.73 268.56 2840.3 270.192 2840.3 272.304V310.608H2878.61C2879.95 310.608 2881.1 311.184 2882.06 312.336C2883.02 313.296 2883.5 314.544 2883.5 316.08C2883.5 317.424 2883.02 318.576 2882.06 319.536C2881.3 320.496 2880.14 320.976 2878.61 320.976H2840.3V401.904C2840.3 414.96 2842.8 424.272 2847.79 429.84C2852.98 435.408 2860.94 438.672 2871.7 439.632L2879.47 440.208Z" fill="#055197"/>
<defs>
<linearGradient id="paint0_linear" x1="514.439" y1="436.578" x2="677.525" y2="273.492" gradientUnits="userSpaceOnUse">
<stop stop-color="#1C75BC"/>
<stop offset="0.5873" stop-color="#089EE1"/>
<stop offset="1" stop-color="#00AEEF"/>
</linearGradient>
<linearGradient id="paint1_linear" x1="462.377" y1="489.205" x2="728.168" y2="223.414" gradientUnits="userSpaceOnUse">
<stop stop-color="#1C75BC"/>
<stop offset="0.5873" stop-color="#089EE1"/>
<stop offset="1" stop-color="#00AEEF"/>
</linearGradient>
<linearGradient id="paint2_linear" x1="427.989" y1="523.028" x2="763.975" y2="187.042" gradientUnits="userSpaceOnUse">
<stop stop-color="#1C75BC"/>
<stop offset="0.5873" stop-color="#089EE1"/>
<stop offset="1" stop-color="#00AEEF"/>
</linearGradient>
</defs>
</svg>
