<svg width="2061" height="712" viewBox="0 0 2061 712" fill="none" xmlns="http://www.w3.org/2000/svg">
<rect width="2061" height="712" rx="66" fill="white"/>
<path d="M333.5 407.9C263.4 292 245.8 174.4 294.1 145.1C342.4 115.8 438.4 186.2 508.5 302.1C578.6 418 596.2 535.7 547.9 564.9C499.6 594.1 403.6 523.8 333.5 407.9Z" fill="url(#paint0_linear)" stroke="#BEF7FF" stroke-width="20" stroke-miterlimit="10"/>
<path opacity="0.75" d="M420.3 458.5C555.775 458.5 665.6 412.743 665.6 356.3C665.6 299.856 555.775 254.1 420.3 254.1C284.825 254.1 175 299.856 175 356.3C175 412.743 284.825 458.5 420.3 458.5Z" fill="url(#paint1_linear)" stroke="#BEF7FF" stroke-width="20" stroke-miterlimit="10"/>
<path opacity="0.8" d="M510.3 404.8C444.4 523.1 351 596.8 301.7 569.4C252.4 541.9 265.8 423.7 331.7 305.4C397.6 187.1 491 113.3 540.3 140.7C589.6 168.1 576.2 286.4 510.3 404.8Z" fill="url(#paint2_linear)" stroke="#BEF7FF" stroke-width="20" stroke-miterlimit="10"/>
<path d="M806 142.5L806 568.5" stroke="#1C75BC" stroke-width="10"/>
<path d="M979.12 286.708C971.056 286.708 963.984 285.012 957.904 281.62C951.888 278.228 947.248 273.46 943.984 267.316C940.72 261.172 939.088 254.036 939.088 245.908C939.088 237.716 940.816 230.484 944.272 224.212C947.792 217.876 952.592 212.98 958.672 209.524C964.752 206.068 971.536 204.34 979.024 204.34C987.152 204.34 994.064 206.068 999.76 209.524C1005.52 212.98 1009.84 217.396 1012.72 222.772C1015.6 228.148 1017.04 233.652 1017.04 239.284C1017.04 245.94 1016.05 251.284 1014.06 255.316C1012.14 259.348 1009.74 262.196 1006.86 263.86C1003.98 265.524 1001.04 266.356 998.032 266.356C994.576 266.356 991.92 265.62 990.064 264.148C988.272 262.612 987.344 260.404 987.28 257.524H987.088C985.552 260.212 983.472 262.356 980.848 263.956C978.288 265.556 975.44 266.356 972.304 266.356C968.4 266.356 965.136 264.948 962.512 262.132C959.952 259.252 958.672 255.156 958.672 249.844C958.672 245.556 959.504 241.492 961.168 237.652C962.832 233.812 965.2 230.708 968.272 228.34C971.408 225.908 974.992 224.692 979.024 224.692C982.288 224.692 985.104 225.524 987.472 227.188C989.904 228.852 991.376 230.9 991.888 233.332H991.984L993.04 227.476C993.104 226.964 993.328 226.548 993.712 226.228C994.096 225.908 994.544 225.748 995.056 225.748C995.696 225.748 996.176 225.94 996.496 226.324C996.816 226.708 996.944 227.252 996.88 227.956L992.368 253.876C992.176 255.028 992.08 256.052 992.08 256.948C992.08 259.188 992.624 260.724 993.712 261.556C994.864 262.388 996.56 262.804 998.8 262.804C1000.98 262.804 1003.12 262.036 1005.23 260.5C1007.41 258.964 1009.23 256.436 1010.7 252.916C1012.24 249.396 1013.01 244.852 1013.01 239.284C1013.01 234.42 1011.76 229.62 1009.26 224.884C1006.77 220.148 1002.96 216.244 997.84 213.172C992.72 210.036 986.448 208.468 979.024 208.468C972.24 208.468 966.128 210.004 960.688 213.076C955.248 216.148 950.96 220.532 947.824 226.228C944.688 231.86 943.12 238.42 943.12 245.908C943.12 253.332 944.56 259.796 947.44 265.3C950.32 270.804 954.448 275.06 959.824 278.068C965.264 281.076 971.696 282.58 979.12 282.58C984.624 282.58 989.424 281.748 993.52 280.084C997.68 278.42 1001.01 276.148 1003.5 273.268C1004.34 272.244 1005.2 271.732 1006.1 271.732C1006.67 271.732 1007.12 271.956 1007.44 272.404C1007.82 272.852 1008.02 273.364 1008.02 273.94C1008.02 274.644 1007.79 275.252 1007.34 275.764C1004.21 279.284 1000.21 281.972 995.344 283.828C990.544 285.748 985.136 286.708 979.12 286.708ZM973.072 262.804C976.592 262.804 979.664 261.748 982.288 259.636C984.912 257.524 986.896 254.772 988.24 251.38C989.648 247.924 990.352 244.34 990.352 240.628C990.352 236.66 989.328 233.62 987.28 231.508C985.296 229.396 982.608 228.34 979.216 228.34C975.824 228.34 972.848 229.364 970.288 231.412C967.792 233.396 965.84 236.02 964.432 239.284C963.088 242.484 962.416 245.844 962.416 249.364C962.416 253.78 963.44 257.14 965.488 259.444C967.536 261.684 970.064 262.804 973.072 262.804ZM1065.61 263.38C1066.06 263.38 1066.44 263.572 1066.76 263.956C1067.08 264.276 1067.24 264.66 1067.24 265.108C1067.24 265.748 1066.99 266.388 1066.47 267.028C1066.03 267.604 1065.19 268.276 1063.98 269.044C1059.37 271.796 1054.6 273.172 1049.67 273.172C1042.7 273.172 1037.19 271.028 1033.16 266.74C1029.19 262.452 1027.21 256.564 1027.21 249.076C1027.21 244.276 1028.11 240.052 1029.9 236.404C1031.69 232.756 1034.22 229.94 1037.48 227.956C1040.75 225.908 1044.49 224.884 1048.71 224.884C1054.6 224.884 1059.24 226.804 1062.63 230.644C1066.03 234.484 1067.72 239.732 1067.72 246.388C1067.72 247.54 1067.5 248.372 1067.05 248.884C1066.6 249.396 1065.8 249.652 1064.65 249.652H1031.63C1031.69 255.924 1033.26 260.756 1036.33 264.148C1039.47 267.54 1043.85 269.236 1049.48 269.236C1052.55 269.236 1055.08 268.82 1057.07 267.988C1059.11 267.156 1061.1 266.068 1063.02 264.724C1064.36 263.828 1065.23 263.38 1065.61 263.38ZM1048.71 228.628C1043.85 228.628 1039.91 230.164 1036.91 233.236C1033.96 236.244 1032.23 240.468 1031.72 245.908H1063.88C1063.75 240.34 1062.38 236.084 1059.75 233.14C1057.13 230.132 1053.45 228.628 1048.71 228.628ZM1115.98 269.14C1116.43 269.652 1116.65 270.196 1116.65 270.772C1116.65 271.348 1116.46 271.828 1116.08 272.212C1115.69 272.596 1115.24 272.788 1114.73 272.788C1114.16 272.788 1113.61 272.5 1113.1 271.924L1095.82 251.668L1078.64 271.924C1078.06 272.5 1077.48 272.788 1076.91 272.788C1076.4 272.788 1075.95 272.596 1075.56 272.212C1075.18 271.828 1074.99 271.348 1074.99 270.772C1074.99 270.196 1075.21 269.652 1075.66 269.14L1093.23 248.692L1076.24 228.724C1075.79 228.212 1075.56 227.668 1075.56 227.092C1075.56 226.516 1075.76 226.036 1076.14 225.652C1076.52 225.268 1076.97 225.076 1077.48 225.076C1078.06 225.076 1078.6 225.364 1079.12 225.94L1095.82 245.716L1112.52 225.94C1113.04 225.364 1113.58 225.076 1114.16 225.076C1114.67 225.076 1115.12 225.268 1115.5 225.652C1115.95 226.036 1116.17 226.516 1116.17 227.092C1116.17 227.668 1115.95 228.212 1115.5 228.724L1098.41 248.692L1115.98 269.14ZM1145.17 273.172C1141.08 273.172 1137.43 272.18 1134.23 270.196C1131.03 268.212 1128.53 265.396 1126.74 261.748C1125.01 258.1 1124.15 253.908 1124.15 249.172C1124.15 244.372 1125.01 240.148 1126.74 236.5C1128.53 232.788 1131.03 229.94 1134.23 227.956C1137.49 225.908 1141.2 224.884 1145.36 224.884C1147.73 224.884 1150.04 225.204 1152.28 225.844C1154.52 226.42 1156.5 227.348 1158.23 228.628C1159.44 229.588 1160.28 230.388 1160.72 231.028C1161.24 231.604 1161.49 232.244 1161.49 232.948C1161.49 233.396 1161.33 233.812 1161.01 234.196C1160.69 234.516 1160.31 234.676 1159.86 234.676C1159.54 234.676 1159.16 234.548 1158.71 234.292C1158.26 233.972 1157.78 233.62 1157.27 233.236C1155.54 231.892 1153.78 230.804 1151.99 229.972C1150.26 229.14 1148.08 228.724 1145.46 228.724C1140.15 228.724 1135.99 230.548 1132.98 234.196C1129.97 237.844 1128.47 242.868 1128.47 249.268C1128.47 255.54 1129.94 260.436 1132.88 263.956C1135.89 267.476 1140.05 269.236 1145.36 269.236C1148.05 269.236 1150.32 268.82 1152.18 267.988C1154.1 267.156 1155.92 266.068 1157.65 264.724C1158.87 263.828 1159.7 263.38 1160.15 263.38C1160.6 263.38 1160.98 263.54 1161.3 263.86C1161.62 264.18 1161.78 264.564 1161.78 265.012C1161.78 265.652 1161.56 266.228 1161.11 266.74C1160.66 267.252 1159.8 268.02 1158.52 269.044C1156.85 270.26 1154.8 271.252 1152.37 272.02C1149.94 272.788 1147.54 273.172 1145.17 273.172ZM1174.43 272.98C1173.79 272.98 1173.27 272.788 1172.89 272.404C1172.57 272.02 1172.41 271.476 1172.41 270.772V206.548C1172.41 205.844 1172.57 205.3 1172.89 204.916C1173.27 204.532 1173.79 204.34 1174.43 204.34C1175 204.34 1175.48 204.564 1175.87 205.012C1176.25 205.396 1176.44 205.908 1176.44 206.548V270.772C1176.44 271.412 1176.25 271.956 1175.87 272.404C1175.48 272.788 1175 272.98 1174.43 272.98ZM1194.77 272.98C1194.13 272.98 1193.62 272.788 1193.23 272.404C1192.91 272.02 1192.75 271.476 1192.75 270.772V206.548C1192.75 205.844 1192.91 205.3 1193.23 204.916C1193.62 204.532 1194.13 204.34 1194.77 204.34C1195.35 204.34 1195.83 204.564 1196.21 205.012C1196.59 205.396 1196.79 205.908 1196.79 206.548V270.772C1196.79 271.412 1196.59 271.956 1196.21 272.404C1195.83 272.788 1195.35 272.98 1194.77 272.98ZM1248.33 263.38C1248.78 263.38 1249.16 263.572 1249.48 263.956C1249.8 264.276 1249.96 264.66 1249.96 265.108C1249.96 265.748 1249.71 266.388 1249.19 267.028C1248.75 267.604 1247.91 268.276 1246.7 269.044C1242.09 271.796 1237.32 273.172 1232.39 273.172C1225.42 273.172 1219.91 271.028 1215.88 266.74C1211.91 262.452 1209.93 256.564 1209.93 249.076C1209.93 244.276 1210.83 240.052 1212.62 236.404C1214.41 232.756 1216.94 229.94 1220.2 227.956C1223.47 225.908 1227.21 224.884 1231.43 224.884C1237.32 224.884 1241.96 226.804 1245.35 230.644C1248.75 234.484 1250.44 239.732 1250.44 246.388C1250.44 247.54 1250.22 248.372 1249.77 248.884C1249.32 249.396 1248.52 249.652 1247.37 249.652H1214.35C1214.41 255.924 1215.98 260.756 1219.05 264.148C1222.19 267.54 1226.57 269.236 1232.2 269.236C1235.27 269.236 1237.8 268.82 1239.79 267.988C1241.83 267.156 1243.82 266.068 1245.74 264.724C1247.08 263.828 1247.95 263.38 1248.33 263.38ZM1231.43 228.628C1226.57 228.628 1222.63 230.164 1219.63 233.236C1216.68 236.244 1214.95 240.468 1214.44 245.908H1246.6C1246.47 240.34 1245.1 236.084 1242.47 233.14C1239.85 230.132 1236.17 228.628 1231.43 228.628ZM1283.51 224.884C1294.77 224.884 1300.4 230.772 1300.4 242.548V270.772C1300.4 272.244 1299.73 272.98 1298.39 272.98C1297.75 272.98 1297.23 272.788 1296.85 272.404C1296.53 272.02 1296.37 271.476 1296.37 270.772V242.932C1296.37 238.004 1295.38 234.42 1293.39 232.18C1291.41 229.876 1288.21 228.724 1283.79 228.724C1278.87 228.724 1274.9 230.26 1271.89 233.332C1268.95 236.34 1267.47 240.372 1267.47 245.428V270.772C1267.47 271.476 1267.28 272.02 1266.9 272.404C1266.58 272.788 1266.1 272.98 1265.46 272.98C1264.82 272.98 1264.31 272.788 1263.92 272.404C1263.6 272.02 1263.44 271.476 1263.44 270.772V227.284C1263.44 225.812 1264.11 225.076 1265.46 225.076C1266.1 225.076 1266.58 225.268 1266.9 225.652C1267.22 226.036 1267.38 226.58 1267.38 227.284V234.388C1268.79 231.316 1270.9 228.98 1273.71 227.38C1276.59 225.716 1279.86 224.884 1283.51 224.884ZM1335.51 269.236C1336.92 269.364 1337.62 270.004 1337.62 271.156C1337.62 272.564 1336.7 273.172 1334.84 272.98L1332.34 272.788C1327.54 272.468 1324.02 271.028 1321.78 268.468C1319.54 265.844 1318.42 261.812 1318.42 256.372V229.492H1310.46C1310.01 229.492 1309.62 229.332 1309.3 229.012C1308.98 228.692 1308.82 228.308 1308.82 227.86C1308.82 227.348 1308.98 226.932 1309.3 226.612C1309.62 226.228 1310.01 226.036 1310.46 226.036H1318.42V213.268C1318.42 212.564 1318.62 212.02 1319 211.636C1319.38 211.252 1319.86 211.06 1320.44 211.06C1321.02 211.06 1321.5 211.252 1321.88 211.636C1322.26 212.02 1322.46 212.564 1322.46 213.268V226.036H1335.22C1335.67 226.036 1336.06 226.228 1336.38 226.612C1336.7 226.932 1336.86 227.348 1336.86 227.86C1336.86 228.308 1336.7 228.692 1336.38 229.012C1336.12 229.332 1335.74 229.492 1335.22 229.492H1322.46V256.468C1322.46 260.82 1323.29 263.924 1324.95 265.78C1326.68 267.636 1329.34 268.724 1332.92 269.044L1335.51 269.236ZM1345.86 248.884C1345.29 248.884 1344.81 248.724 1344.42 248.404C1344.1 248.02 1343.94 247.572 1343.94 247.06C1343.94 246.548 1344.1 246.132 1344.42 245.812C1344.81 245.428 1345.29 245.236 1345.86 245.236H1368.23C1368.81 245.236 1369.26 245.428 1369.58 245.812C1369.9 246.132 1370.06 246.548 1370.06 247.06C1370.06 247.572 1369.9 248.02 1369.58 248.404C1369.26 248.724 1368.81 248.884 1368.23 248.884H1345.86ZM1406.15 225.076C1406.92 225.076 1407.43 225.236 1407.69 225.556C1408.01 225.812 1408.17 226.228 1408.17 226.804C1408.17 227.892 1407.5 228.532 1406.15 228.724L1403.27 229.012C1398.6 229.46 1395.08 231.188 1392.71 234.196C1390.34 237.204 1389.16 240.66 1389.16 244.564V270.772C1389.16 271.476 1388.97 272.02 1388.58 272.404C1388.26 272.788 1387.78 272.98 1387.14 272.98C1386.5 272.98 1385.99 272.788 1385.61 272.404C1385.29 272.02 1385.13 271.476 1385.13 270.772V227.284C1385.13 225.812 1385.8 225.076 1387.14 225.076C1387.72 225.076 1388.2 225.268 1388.58 225.652C1388.97 226.036 1389.16 226.58 1389.16 227.284V234.196C1391.91 228.692 1396.9 225.684 1404.14 225.172L1405.48 225.076H1406.15ZM1450.74 263.38C1451.18 263.38 1451.57 263.572 1451.89 263.956C1452.21 264.276 1452.37 264.66 1452.37 265.108C1452.37 265.748 1452.11 266.388 1451.6 267.028C1451.15 267.604 1450.32 268.276 1449.1 269.044C1444.5 271.796 1439.73 273.172 1434.8 273.172C1427.82 273.172 1422.32 271.028 1418.29 266.74C1414.32 262.452 1412.34 256.564 1412.34 249.076C1412.34 244.276 1413.23 240.052 1415.02 236.404C1416.82 232.756 1419.34 229.94 1422.61 227.956C1425.87 225.908 1429.62 224.884 1433.84 224.884C1439.73 224.884 1444.37 226.804 1447.76 230.644C1451.15 234.484 1452.85 239.732 1452.85 246.388C1452.85 247.54 1452.62 248.372 1452.18 248.884C1451.73 249.396 1450.93 249.652 1449.78 249.652H1416.75C1416.82 255.924 1418.38 260.756 1421.46 264.148C1424.59 267.54 1428.98 269.236 1434.61 269.236C1437.68 269.236 1440.21 268.82 1442.19 267.988C1444.24 267.156 1446.22 266.068 1448.14 264.724C1449.49 263.828 1450.35 263.38 1450.74 263.38ZM1433.84 228.628C1428.98 228.628 1425.04 230.164 1422.03 233.236C1419.09 236.244 1417.36 240.468 1416.85 245.908H1449.01C1448.88 240.34 1447.5 236.084 1444.88 233.14C1442.26 230.132 1438.58 228.628 1433.84 228.628ZM1483.7 224.884C1494.39 224.884 1499.74 230.612 1499.74 242.068V270.676C1499.74 271.38 1499.54 271.924 1499.16 272.308C1498.84 272.692 1498.36 272.884 1497.72 272.884C1497.08 272.884 1496.57 272.692 1496.18 272.308C1495.8 271.86 1495.61 271.316 1495.61 270.676V263.956C1494.2 266.9 1492.15 269.172 1489.46 270.772C1486.84 272.372 1483.83 273.172 1480.44 273.172C1477.5 273.172 1474.78 272.564 1472.28 271.348C1469.85 270.132 1467.9 268.468 1466.42 266.356C1465.02 264.18 1464.31 261.812 1464.31 259.252C1464.31 255.796 1465.21 253.14 1467 251.284C1468.86 249.364 1471.86 247.988 1476.02 247.156C1480.25 246.324 1486.14 245.908 1493.69 245.908H1495.61V241.876C1495.61 237.332 1494.68 234.036 1492.82 231.988C1491.03 229.876 1488.18 228.82 1484.28 228.82C1481.21 228.82 1478.46 229.236 1476.02 230.068C1473.66 230.836 1471.77 231.732 1470.36 232.756C1470.1 232.948 1469.56 233.332 1468.73 233.908C1467.96 234.42 1467.32 234.676 1466.81 234.676C1466.36 234.676 1465.94 234.516 1465.56 234.196C1465.24 233.812 1465.08 233.364 1465.08 232.852C1465.08 231.636 1466.2 230.356 1468.44 229.012C1470.68 227.668 1473.11 226.644 1475.74 225.94C1478.42 225.236 1481.08 224.884 1483.7 224.884ZM1480.44 269.14C1483.32 269.14 1485.91 268.468 1488.22 267.124C1490.52 265.716 1492.31 263.796 1493.59 261.364C1494.94 258.932 1495.61 256.18 1495.61 253.108V249.652H1493.78C1487.06 249.652 1481.94 249.94 1478.42 250.516C1474.9 251.028 1472.44 251.956 1471.03 253.3C1469.62 254.58 1468.92 256.5 1468.92 259.06C1468.92 262.004 1470.01 264.436 1472.18 266.356C1474.36 268.212 1477.11 269.14 1480.44 269.14ZM1533.77 273.172C1529.67 273.172 1526.02 272.18 1522.82 270.196C1519.62 268.212 1517.13 265.396 1515.33 261.748C1513.61 258.1 1512.74 253.908 1512.74 249.172C1512.74 244.372 1513.61 240.148 1515.33 236.5C1517.13 232.788 1519.62 229.94 1522.82 227.956C1526.09 225.908 1529.8 224.884 1533.96 224.884C1536.33 224.884 1538.63 225.204 1540.87 225.844C1543.11 226.42 1545.09 227.348 1546.82 228.628C1548.04 229.588 1548.87 230.388 1549.32 231.028C1549.83 231.604 1550.09 232.244 1550.09 232.948C1550.09 233.396 1549.93 233.812 1549.61 234.196C1549.29 234.516 1548.9 234.676 1548.45 234.676C1548.13 234.676 1547.75 234.548 1547.3 234.292C1546.85 233.972 1546.37 233.62 1545.86 233.236C1544.13 231.892 1542.37 230.804 1540.58 229.972C1538.85 229.14 1536.68 228.724 1534.05 228.724C1528.74 228.724 1524.58 230.548 1521.57 234.196C1518.57 237.844 1517.06 242.868 1517.06 249.268C1517.06 255.54 1518.53 260.436 1521.48 263.956C1524.49 267.476 1528.65 269.236 1533.96 269.236C1536.65 269.236 1538.92 268.82 1540.77 267.988C1542.69 267.156 1544.52 266.068 1546.25 264.724C1547.46 263.828 1548.29 263.38 1548.74 263.38C1549.19 263.38 1549.57 263.54 1549.89 263.86C1550.21 264.18 1550.37 264.564 1550.37 265.012C1550.37 265.652 1550.15 266.228 1549.7 266.74C1549.25 267.252 1548.39 268.02 1547.11 269.044C1545.45 270.26 1543.4 271.252 1540.97 272.02C1538.53 272.788 1536.13 273.172 1533.77 273.172ZM1580.01 269.236C1581.42 269.364 1582.12 270.004 1582.12 271.156C1582.12 272.564 1581.2 273.172 1579.34 272.98L1576.84 272.788C1572.04 272.468 1568.52 271.028 1566.28 268.468C1564.04 265.844 1562.92 261.812 1562.92 256.372V229.492H1554.96C1554.51 229.492 1554.12 229.332 1553.8 229.012C1553.48 228.692 1553.32 228.308 1553.32 227.86C1553.32 227.348 1553.48 226.932 1553.8 226.612C1554.12 226.228 1554.51 226.036 1554.96 226.036H1562.92V213.268C1562.92 212.564 1563.12 212.02 1563.5 211.636C1563.88 211.252 1564.36 211.06 1564.94 211.06C1565.52 211.06 1566 211.252 1566.38 211.636C1566.76 212.02 1566.96 212.564 1566.96 213.268V226.036H1579.72C1580.17 226.036 1580.56 226.228 1580.88 226.612C1581.2 226.932 1581.36 227.348 1581.36 227.86C1581.36 228.308 1581.2 228.692 1580.88 229.012C1580.62 229.332 1580.24 229.492 1579.72 229.492H1566.96V256.468C1566.96 260.82 1567.79 263.924 1569.45 265.78C1571.18 267.636 1573.84 268.724 1577.42 269.044L1580.01 269.236ZM1617.38 276.052C1617.19 276.628 1616.9 277.076 1616.52 277.396C1616.13 277.716 1615.75 277.876 1615.36 277.876C1614.79 277.876 1614.31 277.652 1613.92 277.204C1613.48 276.756 1613.25 276.212 1613.25 275.572C1613.25 275.38 1613.32 275.092 1613.44 274.708L1636.48 202.9C1636.87 201.684 1637.57 201.076 1638.6 201.076C1639.17 201.076 1639.65 201.3 1640.04 201.748C1640.48 202.196 1640.71 202.74 1640.71 203.38C1640.71 203.572 1640.64 203.86 1640.52 204.244L1617.38 276.052ZM1692.06 208.468C1688.22 208.788 1685.27 210.036 1683.22 212.212C1681.24 214.324 1680.25 217.62 1680.25 222.1V226.036H1693.02C1693.46 226.036 1693.85 226.228 1694.17 226.612C1694.49 226.932 1694.65 227.348 1694.65 227.86C1694.65 228.308 1694.49 228.692 1694.17 229.012C1693.91 229.332 1693.53 229.492 1693.02 229.492H1680.25V270.772C1680.25 271.412 1680.06 271.956 1679.67 272.404C1679.29 272.788 1678.81 272.98 1678.23 272.98C1677.59 272.98 1677.08 272.788 1676.7 272.404C1676.38 272.02 1676.22 271.476 1676.22 270.772V229.492H1668.25C1667.8 229.492 1667.42 229.332 1667.1 229.012C1666.78 228.692 1666.62 228.308 1666.62 227.86C1666.62 227.348 1666.78 226.932 1667.1 226.612C1667.42 226.228 1667.8 226.036 1668.25 226.036H1676.22V223.252C1676.22 217.684 1677.5 213.332 1680.06 210.196C1682.68 207.06 1686.52 205.3 1691.58 204.916L1694.07 204.724H1694.84C1696.12 204.724 1696.76 205.268 1696.76 206.356C1696.76 207.508 1696.02 208.148 1694.55 208.276L1692.06 208.468ZM1720.36 273.172C1716.27 273.172 1712.65 272.18 1709.52 270.196C1706.38 268.212 1703.95 265.396 1702.22 261.748C1700.49 258.1 1699.63 253.844 1699.63 248.98C1699.63 244.18 1700.49 239.956 1702.22 236.308C1703.95 232.66 1706.38 229.844 1709.52 227.86C1712.65 225.876 1716.27 224.884 1720.36 224.884C1724.46 224.884 1728.08 225.876 1731.21 227.86C1734.35 229.844 1736.78 232.66 1738.51 236.308C1740.24 239.956 1741.1 244.18 1741.1 248.98C1741.1 253.844 1740.24 258.1 1738.51 261.748C1736.78 265.396 1734.35 268.212 1731.21 270.196C1728.08 272.18 1724.46 273.172 1720.36 273.172ZM1720.27 269.236C1725.58 269.236 1729.64 267.508 1732.46 264.052C1735.34 260.532 1736.78 255.508 1736.78 248.98C1736.78 242.644 1735.31 237.716 1732.36 234.196C1729.48 230.612 1725.48 228.82 1720.36 228.82C1715.24 228.82 1711.21 230.612 1708.27 234.196C1705.39 237.716 1703.95 242.644 1703.95 248.98C1703.95 255.508 1705.36 260.532 1708.17 264.052C1711.05 267.508 1715.08 269.236 1720.27 269.236ZM1775.29 225.076C1776.06 225.076 1776.57 225.236 1776.82 225.556C1777.14 225.812 1777.3 226.228 1777.3 226.804C1777.3 227.892 1776.63 228.532 1775.29 228.724L1772.41 229.012C1767.74 229.46 1764.22 231.188 1761.85 234.196C1759.48 237.204 1758.3 240.66 1758.3 244.564V270.772C1758.3 271.476 1758.1 272.02 1757.72 272.404C1757.4 272.788 1756.92 272.98 1756.28 272.98C1755.64 272.98 1755.13 272.788 1754.74 272.404C1754.42 272.02 1754.26 271.476 1754.26 270.772V227.284C1754.26 225.812 1754.94 225.076 1756.28 225.076C1756.86 225.076 1757.34 225.268 1757.72 225.652C1758.1 226.036 1758.3 226.58 1758.3 227.284V234.196C1761.05 228.692 1766.04 225.684 1773.27 225.172L1774.62 225.076H1775.29ZM1834.15 224.884C1844.39 224.884 1849.51 230.772 1849.51 242.548V270.772C1849.51 271.412 1849.32 271.956 1848.94 272.404C1848.62 272.788 1848.14 272.98 1847.5 272.98C1846.86 272.98 1846.34 272.788 1845.96 272.404C1845.64 271.956 1845.48 271.412 1845.48 270.772V243.028C1845.48 238.036 1844.58 234.42 1842.79 232.18C1841 229.876 1838.15 228.724 1834.25 228.724C1829.77 228.724 1826.18 230.228 1823.5 233.236C1820.87 236.244 1819.56 240.308 1819.56 245.428V270.772C1819.56 271.412 1819.37 271.956 1818.98 272.404C1818.66 272.788 1818.18 272.98 1817.54 272.98C1816.9 272.98 1816.39 272.788 1816.01 272.404C1815.69 271.956 1815.53 271.412 1815.53 270.772V243.028C1815.53 238.036 1814.63 234.42 1812.84 232.18C1811.05 229.876 1808.2 228.724 1804.3 228.724C1799.75 228.724 1796.17 230.228 1793.54 233.236C1790.92 236.244 1789.61 240.308 1789.61 245.428V270.772C1789.61 271.412 1789.42 271.956 1789.03 272.404C1788.71 272.788 1788.23 272.98 1787.59 272.98C1786.95 272.98 1786.44 272.788 1786.06 272.404C1785.74 271.956 1785.58 271.412 1785.58 270.772V227.284C1785.58 225.812 1786.25 225.076 1787.59 225.076C1788.23 225.076 1788.71 225.268 1789.03 225.652C1789.35 226.036 1789.51 226.58 1789.51 227.284V234.196C1790.79 231.188 1792.68 228.884 1795.18 227.284C1797.74 225.684 1800.74 224.884 1804.2 224.884C1811.69 224.884 1816.49 227.988 1818.6 234.196C1819.88 231.316 1821.9 229.044 1824.65 227.38C1827.4 225.716 1830.57 224.884 1834.15 224.884ZM1021.8 382.7C1023.13 382.7 1024.13 383.1 1024.8 383.9C1025.6 384.7 1026 385.767 1026 387.1V477.9C1026 480.967 1024.6 482.5 1021.8 482.5C1020.6 482.5 1019.6 482.1 1018.8 481.3C1018.13 480.367 1017.8 479.233 1017.8 477.9V463.3C1014.73 469.567 1010.27 474.433 1004.4 477.9C998.667 481.233 992.133 482.9 984.8 482.9C973.6 482.9 965.067 479.767 959.2 473.5C953.467 467.233 950.6 458.033 950.6 445.9V387.1C950.6 385.767 950.933 384.7 951.6 383.9C952.4 383.1 953.467 382.7 954.8 382.7C956.133 382.7 957.133 383.1 957.8 383.9C958.6 384.7 959 385.767 959 387.1V445.1C959 455.233 961.067 462.7 965.2 467.5C969.333 472.3 975.733 474.7 984.4 474.7C994.4 474.7 1002.4 471.567 1008.4 465.3C1014.53 458.9 1017.6 450.433 1017.6 439.9V387.1C1017.6 385.767 1017.93 384.7 1018.6 383.9C1019.4 383.1 1020.47 382.7 1021.8 382.7ZM1090.18 482.9C1084.98 482.9 1079.78 482.167 1074.58 480.7C1069.38 479.1 1064.72 476.967 1060.58 474.3C1057.92 472.567 1056.12 471.167 1055.18 470.1C1054.25 468.9 1053.78 467.567 1053.78 466.1C1053.78 465.167 1054.12 464.367 1054.78 463.7C1055.45 462.9 1056.25 462.5 1057.18 462.5C1057.85 462.5 1058.72 462.9 1059.78 463.7C1060.98 464.367 1061.78 464.833 1062.18 465.1C1066.05 467.9 1070.05 470.233 1074.18 472.1C1078.45 473.833 1083.78 474.7 1090.18 474.7C1098.85 474.7 1105.52 473.1 1110.18 469.9C1114.85 466.7 1117.18 462.167 1117.18 456.3C1117.18 452.833 1116.32 449.967 1114.58 447.7C1112.98 445.433 1110.25 443.5 1106.38 441.9C1102.65 440.167 1097.25 438.5 1090.18 436.9C1078.45 434.233 1070.05 430.833 1064.98 426.7C1059.92 422.567 1057.38 417.1 1057.38 410.3C1057.38 402.033 1060.58 395.3 1066.98 390.1C1073.52 384.9 1081.92 382.3 1092.18 382.3C1097.12 382.3 1101.85 382.967 1106.38 384.3C1110.92 385.633 1114.92 387.5 1118.38 389.9C1120.92 391.767 1122.72 393.433 1123.78 394.9C1124.98 396.233 1125.58 397.633 1125.58 399.1C1125.58 400.033 1125.25 400.9 1124.58 401.7C1123.92 402.367 1123.12 402.7 1122.18 402.7C1121.12 402.7 1119.38 401.7 1116.98 399.7C1113.52 397.033 1109.85 394.833 1105.98 393.1C1102.25 391.367 1097.52 390.5 1091.78 390.5C1084.32 390.5 1078.25 392.3 1073.58 395.9C1069.05 399.367 1066.78 403.967 1066.78 409.7C1066.78 413.167 1067.52 416.033 1068.98 418.3C1070.45 420.433 1072.92 422.3 1076.38 423.9C1079.98 425.5 1085.05 427.033 1091.58 428.5C1100.78 430.767 1107.85 433.1 1112.78 435.5C1117.72 437.767 1121.18 440.567 1123.18 443.9C1125.32 447.1 1126.38 451.233 1126.38 456.3C1126.38 464.3 1123.05 470.767 1116.38 475.7C1109.85 480.5 1101.12 482.9 1090.18 482.9ZM1228.5 462.5C1229.43 462.5 1230.23 462.9 1230.9 463.7C1231.57 464.367 1231.9 465.167 1231.9 466.1C1231.9 467.433 1231.37 468.767 1230.3 470.1C1229.37 471.3 1227.63 472.7 1225.1 474.3C1215.5 480.033 1205.57 482.9 1195.3 482.9C1180.77 482.9 1169.3 478.433 1160.9 469.5C1152.63 460.567 1148.5 448.3 1148.5 432.7C1148.5 422.7 1150.37 413.9 1154.1 406.3C1157.83 398.7 1163.1 392.833 1169.9 388.7C1176.7 384.433 1184.5 382.3 1193.3 382.3C1205.57 382.3 1215.23 386.3 1222.3 394.3C1229.37 402.3 1232.9 413.233 1232.9 427.1C1232.9 429.5 1232.43 431.233 1231.5 432.3C1230.57 433.367 1228.9 433.9 1226.5 433.9H1157.7C1157.83 446.967 1161.1 457.033 1167.5 464.1C1174.03 471.167 1183.17 474.7 1194.9 474.7C1201.3 474.7 1206.57 473.833 1210.7 472.1C1214.97 470.367 1219.1 468.1 1223.1 465.3C1225.9 463.433 1227.7 462.5 1228.5 462.5ZM1193.3 390.1C1183.17 390.1 1174.97 393.3 1168.7 399.7C1162.57 405.967 1158.97 414.767 1157.9 426.1H1224.9C1224.63 414.5 1221.77 405.633 1216.3 399.5C1210.83 393.233 1203.17 390.1 1193.3 390.1ZM1266.38 482.5C1265.05 482.5 1263.98 482.1 1263.18 481.3C1262.52 480.367 1262.18 479.233 1262.18 477.9V344.9C1262.18 343.7 1262.65 342.7 1263.58 341.9C1264.65 340.967 1265.85 340.5 1267.18 340.5H1342.18C1343.25 340.5 1344.12 340.9 1344.78 341.7C1345.45 342.367 1345.78 343.233 1345.78 344.3C1345.78 345.5 1345.45 346.5 1344.78 347.3C1344.12 347.967 1343.25 348.3 1342.18 348.3H1270.38V406.1H1338.18C1339.25 406.1 1340.12 406.433 1340.78 407.1C1341.45 407.767 1341.78 408.7 1341.78 409.9C1341.78 411.1 1341.45 412.033 1340.78 412.7C1340.12 413.367 1339.25 413.7 1338.18 413.7H1270.38V477.9C1270.38 480.967 1269.05 482.5 1266.38 482.5ZM1404.2 482.9C1395.67 482.9 1388.13 480.833 1381.6 476.7C1375.07 472.567 1370 466.7 1366.4 459.1C1362.8 451.5 1361 442.633 1361 432.5C1361 422.5 1362.8 413.7 1366.4 406.1C1370 398.5 1375.07 392.633 1381.6 388.5C1388.13 384.367 1395.67 382.3 1404.2 382.3C1412.73 382.3 1420.27 384.367 1426.8 388.5C1433.33 392.633 1438.4 398.5 1442 406.1C1445.6 413.7 1447.4 422.5 1447.4 432.5C1447.4 442.633 1445.6 451.5 1442 459.1C1438.4 466.7 1433.33 472.567 1426.8 476.7C1420.27 480.833 1412.73 482.9 1404.2 482.9ZM1404 474.7C1415.07 474.7 1423.53 471.1 1429.4 463.9C1435.4 456.567 1438.4 446.1 1438.4 432.5C1438.4 419.3 1435.33 409.033 1429.2 401.7C1423.2 394.233 1414.87 390.5 1404.2 390.5C1393.53 390.5 1385.13 394.233 1379 401.7C1373 409.033 1370 419.3 1370 432.5C1370 446.1 1372.93 456.567 1378.8 463.9C1384.8 471.1 1393.2 474.7 1404 474.7ZM1518.63 382.7C1520.23 382.7 1521.29 383.033 1521.83 383.7C1522.49 384.233 1522.83 385.1 1522.83 386.3C1522.83 388.567 1521.43 389.9 1518.63 390.3L1512.63 390.9C1502.89 391.833 1495.56 395.433 1490.63 401.7C1485.69 407.967 1483.23 415.167 1483.23 423.3V477.9C1483.23 479.367 1482.83 480.5 1482.03 481.3C1481.36 482.1 1480.36 482.5 1479.03 482.5C1477.69 482.5 1476.63 482.1 1475.83 481.3C1475.16 480.5 1474.83 479.367 1474.83 477.9V387.3C1474.83 384.233 1476.23 382.7 1479.03 382.7C1480.23 382.7 1481.23 383.1 1482.03 383.9C1482.83 384.7 1483.23 385.833 1483.23 387.3V401.7C1488.96 390.233 1499.36 383.967 1514.43 382.9L1517.23 382.7H1518.63ZM1641.26 382.3C1662.6 382.3 1673.26 394.567 1673.26 419.1V477.9C1673.26 479.233 1672.86 480.367 1672.06 481.3C1671.4 482.1 1670.4 482.5 1669.06 482.5C1667.73 482.5 1666.66 482.1 1665.86 481.3C1665.2 480.367 1664.86 479.233 1664.86 477.9V420.1C1664.86 409.7 1663 402.167 1659.26 397.5C1655.53 392.7 1649.6 390.3 1641.46 390.3C1632.13 390.3 1624.66 393.433 1619.06 399.7C1613.6 405.967 1610.86 414.433 1610.86 425.1V477.9C1610.86 479.233 1610.46 480.367 1609.66 481.3C1609 482.1 1608 482.5 1606.66 482.5C1605.33 482.5 1604.26 482.1 1603.46 481.3C1602.8 480.367 1602.46 479.233 1602.46 477.9V420.1C1602.46 409.7 1600.6 402.167 1596.86 397.5C1593.13 392.7 1587.2 390.3 1579.06 390.3C1569.6 390.3 1562.13 393.433 1556.66 399.7C1551.2 405.967 1548.46 414.433 1548.46 425.1V477.9C1548.46 479.233 1548.06 480.367 1547.26 481.3C1546.6 482.1 1545.6 482.5 1544.26 482.5C1542.93 482.5 1541.86 482.1 1541.06 481.3C1540.4 480.367 1540.06 479.233 1540.06 477.9V387.3C1540.06 384.233 1541.46 382.7 1544.26 382.7C1545.6 382.7 1546.6 383.1 1547.26 383.9C1547.93 384.7 1548.26 385.833 1548.26 387.3V401.7C1550.93 395.433 1554.86 390.633 1560.06 387.3C1565.4 383.967 1571.66 382.3 1578.86 382.3C1594.46 382.3 1604.46 388.767 1608.86 401.7C1611.53 395.7 1615.73 390.967 1621.46 387.5C1627.2 384.033 1633.8 382.3 1641.26 382.3Z" fill="#055197"/>
<g style="mix-blend-mode:color-dodge" opacity="0.6">
<path d="M239 418L431 417" stroke="#0085FF" stroke-width="5"/>
<rect x="412.5" y="204.5" width="293" height="47" stroke="#0085FF" stroke-width="7"/>
<rect x="240.5" y="464.5" width="293" height="47" stroke="#0085FF" stroke-width="7"/>
<path d="M491 482L504 495L517 482" stroke="#0085FF" stroke-width="5"/>
<path d="M90.5 267.5H383.5V365.5H90.5V267.5Z" stroke="#0085FF" stroke-width="7"/>
<rect x="300.5" y="196.5" width="37" height="38" stroke="#0085FF" stroke-width="7"/>
<path d="M309 207L322 222.5L358.5 186" stroke="#0085FF" stroke-width="6"/>
<path d="M426 282H439M452 282H439M439 282V321.5H426H452" stroke="#0085FF" stroke-width="6"/>
<circle cx="492.5" cy="353.5" r="14.5" fill="#0085FF"/>
<circle cx="492.5" cy="353.5" r="21.5" stroke="#0085FF" stroke-width="4"/>
<circle cx="492.5" cy="412.5" r="21.5" stroke="#0085FF" stroke-width="4"/>
<circle cx="367.5" cy="416.5" r="10.5" fill="#0085FF"/>
</g>
<defs>
<linearGradient id="paint0_linear" x1="339.439" y1="436.578" x2="502.525" y2="273.492" gradientUnits="userSpaceOnUse">
<stop stop-color="#1C75BC"/>
<stop offset="0.5873" stop-color="#089EE1"/>
<stop offset="1" stop-color="#00AEEF"/>
</linearGradient>
<linearGradient id="paint1_linear" x1="287.377" y1="489.205" x2="553.168" y2="223.414" gradientUnits="userSpaceOnUse">
<stop stop-color="#1C75BC"/>
<stop offset="0.5873" stop-color="#089EE1"/>
<stop offset="1" stop-color="#00AEEF"/>
</linearGradient>
<linearGradient id="paint2_linear" x1="252.989" y1="523.028" x2="588.975" y2="187.042" gradientUnits="userSpaceOnUse">
<stop stop-color="#1C75BC"/>
<stop offset="0.5873" stop-color="#089EE1"/>
<stop offset="1" stop-color="#00AEEF"/>
</linearGradient>
</defs>
</svg>
